<svg xmlns="http://www.w3.org/2000/svg" width="1200" height="360" viewBox="0 0 1200 360" fill="none">
  <defs>
    <linearGradient id="mist" x1="900" y1="30" x2="500" y2="340" gradientUnits="userSpaceOnUse"><stop stop-color="#6c9b96" stop-opacity=".2"/><stop offset="1" stop-color="#6c9b96" stop-opacity="0"/></linearGradient>
    <linearGradient id="ink" x1="980" y1="70" x2="840" y2="360" gradientUnits="userSpaceOnUse"><stop stop-color="#193f3d" stop-opacity=".27"/><stop offset="1" stop-color="#193f3d" stop-opacity=".02"/></linearGradient>
    <linearGradient id="gold"><stop stop-color="#9d7027"/><stop offset=".38" stop-color="#dcc584"/><stop offset=".62" stop-color="#a2772f"/><stop offset="1" stop-color="#e7d19b"/></linearGradient>
    <filter id="wash"><feTurbulence type="fractalNoise" baseFrequency=".018 .04" numOctaves="3" seed="7" result="grain"/><feDisplacementMap in="SourceGraphic" in2="grain" scale="12"/></filter>
  </defs>
  <g filter="url(#wash)">
    <path fill="url(#mist)" d="m302 360 90-103 42-9 79-115 33 13 51-37 72 80 56-16 108-130 41 15 59 81 42-10 77 114 51-54 46 1 74-80 56 42 41-64 32 21v251Z"/>
    <path fill="url(#ink)" d="m500 360 58-46 34-80 41 5 69-106 31 26 49 67 18-12 48 45 71-137 24 16 19 66 42-8 46 91 52-31 29 26 69-88 25 26 30 77 23-34 37 30v72Z"/>
    <path fill="#315b58" fill-opacity=".09" d="m670 360 28-65 48 5 45-36 45 57 50-50 14 6 38-104 24 19 31 85 30-9 73 92 35-49 36 24 33-79 26-40 33 90 15-7 32 26v35Z"/>
  </g>
  <g stroke="url(#gold)" stroke-width="1.2" opacity=".7">
    <path d="M1187 219c-148 136-256 50-395 106-94 39-169 25-271 34"/>
    <path d="m720 221 17-45 18 9 33 45m103 67 35-30 30 8m81 30 38-45 17 17"/>
    <circle cx="1032" cy="77" r="45" stroke-width=".8" opacity=".5"/>
  </g>
  <g fill="#bb974d" opacity=".6"><circle cx="719" cy="58" r="1.5"/><circle cx="1124" cy="170" r="2"/><circle cx="770" cy="289" r="1"/><circle cx="642" cy="119" r="1.4"/><circle cx="996" cy="315" r="1.4"/><circle cx="855" cy="56" r="1"/></g>
</svg>
